<svg width="162" height="232" viewBox="0 0 162 232" fill="none" xmlns="http://www.w3.org/2000/svg">
<path d="M80 228L5 198L60 89C54 72 65.1333 61.6667 67.7 61C57.1001 46.1448 44.0698 19.7361 37 4H123C116.554 19.6554 104.224 46.1235 93.2592 61C97.7531 64.3333 105.393 74.6 100 89L157 198L80 228Z" fill="white"/>
<path d="M80 228L5 198L60 89M80 228L157 198C134.74 155.433 122.26 131.567 100 89M80 228V99M100 89C93.2592 98 80 99 80 99M100 89C105.393 74.6 97.7531 64.3333 93.2592 61M60 89C67.7 99 80 99 80 99M60 89C54 72 65.1333 61.6667 67.7 61M37 4H123M37 4L80 32M37 4C44.0698 19.7361 57.1001 46.1448 67.7 61M80 72V32M80 72C76.9681 72.2527 72.593 67.8573 67.7 61M80 72C83.7119 72 88.3486 67.6625 93.2592 61M123 4L80 32M123 4C116.554 19.6554 104.224 46.1235 93.2592 61" stroke="black" stroke-width="7"/>
</svg>
