<svg width="136" height="201" viewBox="0 0 136 201" fill="none" xmlns="http://www.w3.org/2000/svg">
<path d="M19.0016 105.014C1.34545 79.6676 -0.817612 65.4372 13.0016 40.0139L28.0016 34.0139V14.0139C57.9024 0.425541 75.6991 0.90066 109.002 14.0139V34.0139L123.002 40.0139C136.92 68.0807 133.932 82.1174 115.002 105.014C102.755 105.938 100.748 110.506 100.002 121.014L109.002 140.014C125.242 152.62 127.514 162.343 123.002 183.014C120.12 189.953 100.904 195.197 89.0016 195.808C65.798 198.428 58.0622 196.735 35.0016 195.808C19.3918 193.914 8.81753 189.61 9.00164 183.014C7.16435 162.588 9.75981 152.847 24.0016 140.014L35.0016 121.014C33.0043 112.254 29.5164 108.665 19.0016 105.014Z" fill="black"/>
<path d="M13.0016 40.0139C-0.817612 65.4372 1.34545 79.6676 19.0016 105.014M13.0016 40.0139L49.0016 57.0139L28.0016 14.0139M13.0016 40.0139L28.0016 34.0139V14.0139M19.0016 105.014L49.0016 89.0139L35.0016 121.014M19.0016 105.014C29.5164 108.665 33.0043 112.254 35.0016 121.014M35.0016 121.014L24.0016 140.014M24.0016 140.014C9.75981 152.847 7.16435 162.588 9.00164 183.014C8.81753 189.61 19.3918 193.914 35.0016 195.808C58.0622 196.735 65.798 198.428 89.0016 195.808C100.904 195.197 120.12 189.953 123.002 183.014C127.514 162.343 125.242 152.62 109.002 140.014M24.0016 140.014C32.8469 148.865 38.0016 150.014 49.0016 153.014C60.0016 156.014 85.0016 153.014 85.0016 153.014C85.0016 153.014 99.6588 148.849 109.002 140.014M109.002 140.014L100.002 121.014M100.002 121.014L85.0016 89.0139L115.002 105.014M100.002 121.014C100.748 110.506 102.755 105.938 115.002 105.014M115.002 105.014C133.932 82.1174 136.92 68.0807 123.002 40.0139M123.002 40.0139L85.0016 57.0139L109.002 14.0139M123.002 40.0139L109.002 34.0139V14.0139M109.002 14.0139C75.6991 0.90066 57.9024 0.425541 28.0016 14.0139" stroke="white" stroke-width="7"/>
</svg>
