<svg width="166" height="239" viewBox="0 0 166 239" fill="none" xmlns="http://www.w3.org/2000/svg">
<path d="M5 215L53 82L34 68L53 55H68L53 4H115L97.5 55H115L133 68L111 82L160 215H129L133 233L84 215L34 233L38 215H5Z" fill="black"/>
<path d="M53 82L5 215H38M53 82H72M53 82L34 68L53 55H68M53 82L68 55M111 82L160 215H129M111 82H97.5M111 82L133 68L115 55H97.5M111 82L97.5 55M129 215L133 233L84 215M129 215L97.5 82M84 215L34 233L38 215M84 215V82M38 215L72 82M72 82H84M84 82H97.5M97.5 55H68M97.5 55L115 4H53L68 55" stroke="white" stroke-width="7"/>
</svg>
