<svg width="154" height="238" viewBox="0 0 154 238" fill="none" xmlns="http://www.w3.org/2000/svg">
<path d="M40 233.721L5 215.721L44 113.721L24 94.7214L21 72.7214L35 82.7214C35.878 57.598 39.3968 46.6342 60 36.7214C58.9066 30.1626 61.6009 27.614 68 24.7214L67.9521 24.5626C65.4688 16.3325 64.3679 12.684 71 5.72139C75.295 3.44272 79.7044 3.40973 84 5.72137C91.3438 12.6406 90.8493 16.1178 88 24.7214C96.1427 26.9338 97.2222 29.8918 96 36.7214C117.507 48.4791 120.372 60.1835 120.621 82.7214L132 72.7214V94.7214L111 113.721L149 215.721L115 233.721H40Z" fill="white"/>
<path d="M40 233.721L5 215.721L44 113.721M40 233.721H115M40 233.721L64 119.721M115 233.721L149 215.721L111 113.721M115 233.721L92 119.721M111 113.721L104 119.721H92M111 113.721L132 94.7214V72.7214L120.621 82.7214M44 113.721L53 119.721H64M44 113.721L24 94.7214L21 72.7214L35 82.7214M64 119.721H92M35 82.7214L56 101.721L50 85.7214H104L99 101.721L120.621 82.7214M35 82.7214C35.878 57.598 39.3968 46.6342 60 36.7214M60 36.7214C74.0596 42.8115 81.9404 42.6344 96 36.7214M60 36.7214C58.9066 30.1626 61.6009 27.614 68 24.7214M96 36.7214C117.507 48.4791 120.372 60.1835 120.621 82.7214M96 36.7214C97.2222 29.8918 96.1427 26.9338 88 24.7214M68 24.7214C75.8884 29.5654 79.5069 29.2476 88 24.7214M68 24.7214C65.4832 16.3791 64.3254 12.7286 71 5.72139C75.295 3.44272 79.7044 3.40973 84 5.72137C91.3438 12.6406 90.8493 16.1178 88 24.7214" stroke="black" stroke-width="7"/>
</svg>
