<svg width="155" height="196" viewBox="0 0 155 196" fill="none" xmlns="http://www.w3.org/2000/svg">
<path d="M4 188V153L34.8345 119C39.8946 104.305 40.0199 90.8749 41 71.8276L17 71V25L50 4L134 6V52L111 68.8667C114.501 87.4617 116.812 97.8136 127 115H151V150L120 192L4 188Z" fill="white"/>
<path d="M4 153V188L120 192M4 153L120 157M4 153L34.8345 119M120 192V157M120 192L151 150V115M120 157L151 115M151 115H127M114 143L131 123L127 115M114 143C102.633 115.611 100.276 100.551 97 73.7586M114 143L24 141C29.0649 132.933 32.4827 125.83 34.8345 119M127 115C116.812 97.8136 114.501 87.4617 111 68.8667M104 74V28M104 74L97 73.7586M104 74L111 68.8667M134 6V52L111 68.8667M134 6L50 4L17 25M134 6L104 28M17 25V71L41 71.8276M17 25L104 28M41 71.8276L97 73.7586M41 71.8276C40.0199 90.8749 39.8946 104.305 34.8345 119" stroke="black" stroke-width="7"/>
</svg>
