<svg width="151" height="137" viewBox="0 0 151 137" fill="none" xmlns="http://www.w3.org/2000/svg">
<mask id="path-1-inside-1_1_27" fill="white">
<path d="M151 114C151 121.732 108.689 137 75 137C41.3106 137 0 125.732 0 118V83L7 75L0 71L75 0L151 71L145 75L151 83V114Z"/>
</mask>
<path d="M151 114C151 121.732 108.689 137 75 137C41.3106 137 0 125.732 0 118V83L7 75L0 71L75 0L151 71L145 75L151 83V114Z" fill="white"/>
<path d="M35 101L34.5407 104.47L34.5439 104.47L35 101ZM44 83L44.8746 79.611L42.1349 78.904L40.8695 81.4348L44 83ZM75 91L74.1254 94.389L74.9734 94.6078L75.8246 94.4015L75 91ZM108 83L111.198 81.5785L110.013 78.9107L107.175 79.5985L108 83ZM20 77L22.6773 79.2543L26.1091 75.1786L21.0057 73.6476L20 77ZM142 92.2084L144.128 94.987L144.128 94.987L142 92.2084ZM132 77L131.468 73.5407L126.081 74.3694L129.076 78.9229L132 77ZM34.5439 104.47C66.8789 108.72 84.9354 108.806 116.477 104.467L115.523 97.5327C84.6358 101.782 67.208 101.703 35.4561 97.5298L34.5439 104.47ZM38.1305 102.565L47.1305 84.5652L40.8695 81.4348L31.8695 99.4348L38.1305 102.565ZM43.1254 86.389L74.1254 94.389L75.8746 87.611L44.8746 79.611L43.1254 86.389ZM75.8246 94.4015L108.825 86.4015L107.175 79.5985L74.1754 87.5985L75.8246 94.4015ZM104.802 84.4215L112.802 102.421L119.198 99.5785L111.198 81.5785L104.802 84.4215ZM-2.60605 85.3363C0.350014 88.6337 3.147 91.4013 6.00863 93.7196L10.415 88.2804C7.93142 86.2685 5.40544 83.7862 2.60605 80.6637L-2.60605 85.3363ZM6.00863 93.7196C14.001 100.194 22.0946 102.822 34.5407 104.47L35.4593 97.5303C23.7001 95.9736 17.0253 93.6356 10.415 88.2804L6.00863 93.7196ZM10.8891 93.2543L22.6773 79.2543L17.3227 74.7457L5.53449 88.7457L10.8891 93.2543ZM21.0057 73.6476L1.00572 67.6476L-1.00572 74.3524L18.9943 80.3524L21.0057 73.6476ZM116.458 104.47C128.844 102.836 137.014 100.436 144.128 94.987L139.872 89.4298C134.21 93.7659 127.499 95.9526 115.542 97.5301L116.458 104.47ZM144.128 94.987C147.542 92.3723 150.603 89.141 153.744 85.1722L148.256 80.8278C145.331 84.5224 142.675 87.2831 139.872 89.4298L144.128 94.987ZM129.076 78.9229L139.076 94.1313L144.924 90.2855L134.924 75.0771L129.076 78.9229ZM71.5 0V91H78.5V0H71.5ZM144.468 71.5407L131.468 73.5407L132.532 80.4593L145.532 78.4593L144.468 71.5407ZM0 83L-5.26804 78.3905L-7 80.3699V83H0ZM151 83H158V80.6667L156.6 78.8L151 83ZM0 71L-4.81233 65.9166L-11.6603 72.3993L-3.47297 77.0777L0 71ZM7 75L12.268 79.6095L17.9039 73.1685L10.473 68.9223L7 75ZM75 0L79.7786 -5.11515L74.9682 -9.60906L70.1877 -5.08345L75 0ZM151 71L154.883 76.8244L162.239 71.9203L155.779 65.8849L151 71ZM145 75L141.117 69.1756L134.96 73.2803L139.4 79.2L145 75ZM144 114C144 111.934 145.22 111.258 144.304 112.125C143.672 112.723 142.442 113.627 140.44 114.75C136.492 116.963 130.621 119.429 123.479 121.739C109.195 126.36 90.9358 130 75 130V144C92.7536 144 112.495 140.006 127.788 135.06C135.435 132.586 142.247 129.786 147.285 126.962C149.776 125.565 152.115 124.008 153.928 122.292C155.458 120.844 158 117.999 158 114H144ZM75 130C58.8282 130 40.6733 127.28 26.6294 123.625C19.5846 121.792 13.8625 119.797 10.0475 117.938C8.10783 116.993 6.98529 116.237 6.45569 115.773C5.69061 115.102 7 115.855 7 118H-7C-7 122.078 -4.39965 124.874 -2.77395 126.3C-0.912783 127.932 1.45527 129.325 3.91487 130.523C8.89837 132.952 15.6095 135.224 23.1036 137.174C38.1373 141.086 57.4824 144 75 144V130ZM7 118V83H-7V118H7ZM144 83V114H158V83H144ZM-3.47297 77.0777L3.52703 81.0777L10.473 68.9223L3.47297 64.9223L-3.47297 77.0777ZM1.73196 70.3905L-5.26804 78.3905L5.26804 87.6095L12.268 79.6095L1.73196 70.3905ZM4.81233 76.0834L79.8123 5.08345L70.1877 -5.08345L-4.81233 65.9166L4.81233 76.0834ZM70.2214 5.11515L146.221 76.1151L155.779 65.8849L79.7786 -5.11515L70.2214 5.11515ZM147.117 65.1756L141.117 69.1756L148.883 80.8244L154.883 76.8244L147.117 65.1756ZM156.6 78.8L150.6 70.8L139.4 79.2L145.4 87.2L156.6 78.8Z" fill="black" mask="url(#path-1-inside-1_1_27)"/>
</svg>
